<mxfile host="app.diagrams.net" modified="2024-06-02T15:34:01.869Z" agent="Mozilla/5.0 (Windows NT 10.0; Win64; x64) AppleWebKit/537.36 (KHTML, like Gecko) Chrome/125.0.0.0 Safari/537.36" etag="a0RI1eqIW9A-R33r0f5L" version="24.4.13" type="github">
  <diagram name="Page-1" id="_MK4_9PiuByTEk-oXN6r">
    <mxGraphModel dx="880" dy="434" grid="1" gridSize="10" guides="1" tooltips="1" connect="1" arrows="1" fold="1" page="1" pageScale="1" pageWidth="850" pageHeight="1100" math="0" shadow="0">
      <root>
        <mxCell id="0" />
        <mxCell id="1" parent="0" />
        <mxCell id="G5UCCASqWPIwV1Wrcec2-27" value="" style="image;aspect=fixed;perimeter=ellipsePerimeter;html=1;align=center;shadow=0;dashed=0;spacingTop=3;image=img/lib/active_directory/web_server.svg;" vertex="1" parent="1">
          <mxGeometry x="628" y="135" width="40" height="50" as="geometry" />
        </mxCell>
        <mxCell id="G5UCCASqWPIwV1Wrcec2-28" value="" style="image;aspect=fixed;perimeter=ellipsePerimeter;html=1;align=center;shadow=0;dashed=0;spacingTop=3;image=img/lib/active_directory/sql_server.svg;" vertex="1" parent="1">
          <mxGeometry x="748" y="145" width="38.5" height="50" as="geometry" />
        </mxCell>
        <mxCell id="G5UCCASqWPIwV1Wrcec2-29" value="" style="edgeStyle=orthogonalEdgeStyle;rounded=0;orthogonalLoop=1;jettySize=auto;html=1;" edge="1" parent="1" source="G5UCCASqWPIwV1Wrcec2-31" target="G5UCCASqWPIwV1Wrcec2-40">
          <mxGeometry relative="1" as="geometry" />
        </mxCell>
        <mxCell id="G5UCCASqWPIwV1Wrcec2-30" value="" style="edgeStyle=orthogonalEdgeStyle;rounded=0;orthogonalLoop=1;jettySize=auto;html=1;" edge="1" parent="1" source="G5UCCASqWPIwV1Wrcec2-31">
          <mxGeometry relative="1" as="geometry">
            <mxPoint x="253" y="335" as="targetPoint" />
          </mxGeometry>
        </mxCell>
        <mxCell id="G5UCCASqWPIwV1Wrcec2-31" value="" style="fontColor=#0066CC;verticalAlign=top;verticalLabelPosition=bottom;labelPosition=center;align=center;html=1;outlineConnect=0;fillColor=#CCCCCC;strokeColor=#6881B3;gradientColor=none;gradientDirection=north;strokeWidth=2;shape=mxgraph.networks.pc;" vertex="1" parent="1">
          <mxGeometry x="76" y="300" width="100" height="70" as="geometry" />
        </mxCell>
        <mxCell id="G5UCCASqWPIwV1Wrcec2-32" style="edgeStyle=orthogonalEdgeStyle;rounded=0;orthogonalLoop=1;jettySize=auto;html=1;" edge="1" parent="1" source="G5UCCASqWPIwV1Wrcec2-33">
          <mxGeometry relative="1" as="geometry">
            <mxPoint x="548" y="170" as="targetPoint" />
          </mxGeometry>
        </mxCell>
        <mxCell id="G5UCCASqWPIwV1Wrcec2-33" value="SERVER 1" style="rounded=0;whiteSpace=wrap;html=1;fillColor=none;gradientColor=default;verticalAlign=top;fontSize=14;fontStyle=1" vertex="1" parent="1">
          <mxGeometry x="606" y="80" width="192" height="180" as="geometry" />
        </mxCell>
        <mxCell id="G5UCCASqWPIwV1Wrcec2-34" value="web server&lt;div&gt;&lt;span style=&quot;color: rgb(51, 51, 51); font-family: aktiv-grotesk, sans-serif; font-size: 14px; font-weight: 400; text-align: left; background-color: rgb(255, 255, 255);&quot;&gt;Nginx&lt;/span&gt;&lt;br&gt;&lt;/div&gt;" style="rounded=0;whiteSpace=wrap;html=1;fontStyle=1;fillColor=none;strokeColor=none;" vertex="1" parent="1">
          <mxGeometry x="608" y="195" width="80" height="30" as="geometry" />
        </mxCell>
        <mxCell id="G5UCCASqWPIwV1Wrcec2-35" value="MSQL&lt;div&gt;server&lt;/div&gt;" style="rounded=0;whiteSpace=wrap;html=1;fillColor=none;strokeColor=none;fontStyle=1" vertex="1" parent="1">
          <mxGeometry x="728" y="185" width="70" height="60" as="geometry" />
        </mxCell>
        <mxCell id="G5UCCASqWPIwV1Wrcec2-36" value="CLIENT" style="rounded=0;whiteSpace=wrap;html=1;fontStyle=1;fillColor=none;strokeColor=none;" vertex="1" parent="1">
          <mxGeometry x="108" y="375" width="50" height="40" as="geometry" />
        </mxCell>
        <mxCell id="G5UCCASqWPIwV1Wrcec2-37" value="" style="outlineConnect=0;dashed=0;verticalLabelPosition=bottom;verticalAlign=top;align=center;html=1;shape=mxgraph.aws3.android;fillColor=#5A69A4;gradientColor=none;" vertex="1" parent="1">
          <mxGeometry x="688" y="140" width="40" height="40" as="geometry" />
        </mxCell>
        <mxCell id="G5UCCASqWPIwV1Wrcec2-38" value="PHP&lt;div&gt;code&amp;nbsp;&lt;/div&gt;&lt;div&gt;base&lt;/div&gt;" style="rounded=0;whiteSpace=wrap;html=1;fontStyle=1;fillColor=none;strokeColor=none;" vertex="1" parent="1">
          <mxGeometry x="689" y="186" width="40" height="59" as="geometry" />
        </mxCell>
        <mxCell id="G5UCCASqWPIwV1Wrcec2-39" style="edgeStyle=orthogonalEdgeStyle;rounded=0;orthogonalLoop=1;jettySize=auto;html=1;" edge="1" parent="1" source="G5UCCASqWPIwV1Wrcec2-40">
          <mxGeometry relative="1" as="geometry">
            <mxPoint x="126" y="300" as="targetPoint" />
          </mxGeometry>
        </mxCell>
        <mxCell id="G5UCCASqWPIwV1Wrcec2-40" value="" style="image;aspect=fixed;html=1;points=[];align=center;fontSize=12;image=img/lib/azure2/networking/DNS_Zones.svg;" vertex="1" parent="1">
          <mxGeometry x="94" y="150" width="64" height="64" as="geometry" />
        </mxCell>
        <mxCell id="G5UCCASqWPIwV1Wrcec2-41" value="" style="edgeStyle=orthogonalEdgeStyle;rounded=0;orthogonalLoop=1;jettySize=auto;html=1;" edge="1" parent="1" source="G5UCCASqWPIwV1Wrcec2-42">
          <mxGeometry relative="1" as="geometry">
            <mxPoint x="353" y="335" as="targetPoint" />
          </mxGeometry>
        </mxCell>
        <mxCell id="G5UCCASqWPIwV1Wrcec2-42" value="" style="outlineConnect=0;dashed=0;verticalLabelPosition=bottom;verticalAlign=top;align=center;html=1;shape=mxgraph.aws3.internet_3;fillColor=#D2D3D3;gradientColor=none;" vertex="1" parent="1">
          <mxGeometry x="262.75" y="314" width="61.83" height="42" as="geometry" />
        </mxCell>
        <mxCell id="G5UCCASqWPIwV1Wrcec2-43" value="HTTPS request&lt;div&gt;&lt;font style=&quot;font-size: 10px;&quot;&gt;www.foobar.com&lt;/font&gt;&lt;/div&gt;" style="rounded=0;whiteSpace=wrap;html=1;fontStyle=1;fillColor=none;strokeColor=none;" vertex="1" parent="1">
          <mxGeometry x="173" y="295" width="120" height="35" as="geometry" />
        </mxCell>
        <mxCell id="G5UCCASqWPIwV1Wrcec2-44" value="HTTP response" style="rounded=0;whiteSpace=wrap;html=1;fontStyle=1;fillColor=none;strokeColor=none;" vertex="1" parent="1">
          <mxGeometry x="493" y="128" width="120" height="35" as="geometry" />
        </mxCell>
        <mxCell id="G5UCCASqWPIwV1Wrcec2-45" value="www.foobar.com" style="rounded=0;whiteSpace=wrap;html=1;fontStyle=1;rotation=-90;fontSize=9;fillColor=none;strokeColor=none;" vertex="1" parent="1">
          <mxGeometry x="53" y="239" width="105" height="34" as="geometry" />
        </mxCell>
        <mxCell id="G5UCCASqWPIwV1Wrcec2-46" value="8.8.8.8" style="rounded=0;whiteSpace=wrap;html=1;rotation=90;fillColor=none;strokeColor=none;" vertex="1" parent="1">
          <mxGeometry x="88" y="226" width="120" height="60" as="geometry" />
        </mxCell>
        <mxCell id="G5UCCASqWPIwV1Wrcec2-47" value="DNS&lt;div&gt;type A&lt;/div&gt;" style="rounded=0;whiteSpace=wrap;html=1;fontStyle=1;fillColor=none;strokeColor=none;" vertex="1" parent="1">
          <mxGeometry x="128" y="160" width="120" height="60" as="geometry" />
        </mxCell>
        <mxCell id="G5UCCASqWPIwV1Wrcec2-48" value="Internet" style="rounded=0;whiteSpace=wrap;html=1;fontStyle=1;fillColor=none;strokeColor=none;" vertex="1" parent="1">
          <mxGeometry x="239.93" y="368" width="120" height="35" as="geometry" />
        </mxCell>
        <mxCell id="G5UCCASqWPIwV1Wrcec2-49" value="" style="image;aspect=fixed;perimeter=ellipsePerimeter;html=1;align=center;shadow=0;dashed=0;spacingTop=3;image=img/lib/active_directory/web_server.svg;" vertex="1" parent="1">
          <mxGeometry x="628" y="363" width="40" height="50" as="geometry" />
        </mxCell>
        <mxCell id="G5UCCASqWPIwV1Wrcec2-50" value="" style="image;aspect=fixed;perimeter=ellipsePerimeter;html=1;align=center;shadow=0;dashed=0;spacingTop=3;image=img/lib/active_directory/sql_server.svg;" vertex="1" parent="1">
          <mxGeometry x="748" y="373" width="38.5" height="50" as="geometry" />
        </mxCell>
        <mxCell id="G5UCCASqWPIwV1Wrcec2-51" value="SERVER 2" style="rounded=0;whiteSpace=wrap;html=1;fillColor=none;gradientColor=default;verticalAlign=top;fontSize=14;fontStyle=1" vertex="1" parent="1">
          <mxGeometry x="606" y="308" width="192" height="180" as="geometry" />
        </mxCell>
        <mxCell id="G5UCCASqWPIwV1Wrcec2-52" value="MSQL&lt;div&gt;server&lt;/div&gt;" style="rounded=0;whiteSpace=wrap;html=1;fillColor=none;strokeColor=none;fontStyle=1" vertex="1" parent="1">
          <mxGeometry x="728" y="413" width="70" height="60" as="geometry" />
        </mxCell>
        <mxCell id="G5UCCASqWPIwV1Wrcec2-53" value="" style="outlineConnect=0;dashed=0;verticalLabelPosition=bottom;verticalAlign=top;align=center;html=1;shape=mxgraph.aws3.android;fillColor=#5A69A4;gradientColor=none;" vertex="1" parent="1">
          <mxGeometry x="688" y="368" width="40" height="40" as="geometry" />
        </mxCell>
        <mxCell id="G5UCCASqWPIwV1Wrcec2-54" value="PHP&lt;div&gt;code&amp;nbsp;&lt;/div&gt;&lt;div&gt;base&lt;/div&gt;" style="rounded=0;whiteSpace=wrap;html=1;fontStyle=1;fillColor=none;strokeColor=none;" vertex="1" parent="1">
          <mxGeometry x="689" y="414" width="40" height="59" as="geometry" />
        </mxCell>
        <mxCell id="G5UCCASqWPIwV1Wrcec2-55" style="edgeStyle=orthogonalEdgeStyle;rounded=0;orthogonalLoop=1;jettySize=auto;html=1;exitX=1;exitY=0.5;exitDx=0;exitDy=0;exitPerimeter=0;entryX=0;entryY=0.25;entryDx=0;entryDy=0;" edge="1" parent="1" source="G5UCCASqWPIwV1Wrcec2-56" target="G5UCCASqWPIwV1Wrcec2-34">
          <mxGeometry relative="1" as="geometry">
            <mxPoint x="443" y="210" as="targetPoint" />
          </mxGeometry>
        </mxCell>
        <mxCell id="G5UCCASqWPIwV1Wrcec2-56" value="" style="outlineConnect=0;dashed=0;verticalLabelPosition=bottom;verticalAlign=top;align=center;html=1;shape=mxgraph.aws3.application_load_balancer;fillColor=#F58536;gradientColor=none;" vertex="1" parent="1">
          <mxGeometry x="359.93000000000006" y="308" width="45.04" height="47" as="geometry" />
        </mxCell>
        <mxCell id="G5UCCASqWPIwV1Wrcec2-57" value="Load balancer&lt;div&gt;&lt;span style=&quot;color: rgb(51, 51, 51); font-family: aktiv-grotesk, sans-serif; font-size: 14px; font-weight: 400; text-align: left; background-color: rgb(255, 255, 255);&quot;&gt;HAproxy&lt;/span&gt;&lt;br&gt;&lt;/div&gt;" style="rounded=0;whiteSpace=wrap;html=1;fontStyle=1;fillColor=none;strokeColor=none;" vertex="1" parent="1">
          <mxGeometry x="333" y="363" width="120" height="35" as="geometry" />
        </mxCell>
        <mxCell id="G5UCCASqWPIwV1Wrcec2-58" value="web server&lt;div&gt;&lt;span style=&quot;color: rgb(51, 51, 51); font-family: aktiv-grotesk, sans-serif; font-size: 14px; font-weight: 400; text-align: left; background-color: rgb(255, 255, 255);&quot;&gt;Nginx&lt;/span&gt;&lt;br&gt;&lt;/div&gt;" style="rounded=0;whiteSpace=wrap;html=1;fontStyle=1;fillColor=none;strokeColor=none;" vertex="1" parent="1">
          <mxGeometry x="608" y="428.5" width="80" height="30" as="geometry" />
        </mxCell>
      </root>
    </mxGraphModel>
  </diagram>
</mxfile>
